<?xml version="1.0" standalone="no"?>
<!DOCTYPE svg PUBLIC "-//W3C//DTD SVG 20010904//EN"
 "http://www.w3.org/TR/2001/REC-SVG-20010904/DTD/svg10.dtd">
<svg version="1.0" xmlns="http://www.w3.org/2000/svg"
 width="512.000000pt" height="512.000000pt" viewBox="0 0 512.000000 512.000000"
 preserveAspectRatio="xMidYMid meet">
<metadata>
Created by potrace 1.11, written by Peter Selinger 2001-2013
</metadata>
<g transform="translate(0.000000,512.000000) scale(0.100000,-0.100000)"
fill="#000000" stroke="none">
<path d="M1905 4390 c-8 -9 -15 -26 -15 -38 0 -11 -4 -23 -9 -26 -4 -3 -12
-20 -16 -38 -4 -18 -9 -35 -10 -38 -1 -3 -4 -12 -8 -20 -6 -17 -128 -390 -131
-405 -2 -5 -6 -17 -9 -25 -3 -8 -46 -139 -95 -290 l-89 -275 -400 -5 c-433 -5
-420 -4 -438 -60 -5 -14 -8 -500 -8 -1080 l0 -1055 -166 0 -166 0 -1 -35 c-2
-66 40 -110 131 -138 32 -10 450 -12 2005 -10 l1965 3 50 25 c28 14 60 40 72
59 25 37 31 90 11 93 -7 1 -82 2 -165 3 -84 1 -156 4 -159 8 -4 3 -6 483 -6
1066 l0 1061 -28 30 -28 30 -196 0 c-108 0 -196 3 -196 6 0 6 58 190 67 214 4
8 7 17 7 20 2 7 152 467 181 554 33 99 29 104 -92 103 l-97 0 -38 43 c-25 28
-38 53 -39 74 -2 53 3 95 13 111 3 6 1 20 -5 32 l-12 21 -932 -1 c-856 0 -934
-2 -948 -17z"/>
</g>
</svg>
